# xmcd
#
# Track frame offsets:
#	150
#	25806
#	42982
#	64457
#	86876
#	107300
#	131461
#	149544
#	171005
#	190262
#	205199
#	227826
#	245819
#	265979
#
# Disc length: 3833 seconds
#
# Revision: 1
# Processed by: cddbd v1.5.2PL0 Copyright (c) Steve Scherf et al.
# Submitted via: EasyCDDAExtractor 15.3.0.1
#
DISCID=cd0ef70e
DTITLE=Alejandro Sanz - Coleccion Definitiva - CD 1
DYEAR=2012
DGENRE=Latin
TTITLE0=Corazon Partio
TTITLE1=Lo Ves
TTITLE2=Amiga Mia
TTITLE3=Mi Soledad Y Yo
TTITLE4=Mi Primera Cancion
TTITLE5=Y, Si Fuera Ella
TTITLE6=Quiero Morir En Tu Veneno
TTITLE7=Aquello Que Me Diste
TTITLE8=Si Tu Me Miras
TTITLE9=Viviendo Deprisa
TTITLE10=La Fuerza Del Corazon
TTITLE11=Como Te Echo De Menos
TTITLE12=Pisando Fuerte
TTITLE13=Se Le Apago La Luz
EXTD=
EXTT0=
EXTT1=
EXTT2=
EXTT3=
EXTT4=
EXTT5=
EXTT6=
EXTT7=
EXTT8=
EXTT9=
EXTT10=
EXTT11=
EXTT12=
EXTT13=
PLAYORDER=
